# xmcd
#
# Track frame offsets:
#	180
#	12409
#	26691
#	43176
#	55429
#	67848
#	85520
#	95315
#	108028
#	120992
#
# Disc length: 1775 seconds
#
# Revision: 2
# Processed by: cddbd v1.5.2PL0 Copyright (c) Steve Scherf et al.
# Submitted via: audiograbber 1.83.01
#
DISCID=7006ed0a
DTITLE=Merle Haggard - Critique Country Classics - Volume 2
DYEAR=1900
DGENRE=Oldies
TTITLE0=Okie From Muskogee
TTITLE1=Branded Man
TTITLE2=Daddy Frank (The Guitar Man)
TTITLE3=Everybody's Had The Blues
TTITLE4=If We Make It Through December
TTITLE5=I Think I'll Just Stay Here And Drink
TTITLE6=Mama Tried
TTITLE7=Sing Me Back Home
TTITLE8=The Fightin Side Of Me
TTITLE9=Workin' Man Blues
EXTD=
EXTT0=
EXTT1=
EXTT2=
EXTT3=
EXTT4=
EXTT5=
EXTT6=
EXTT7=
EXTT8=
EXTT9=
PLAYORDER=
